<svg width="16" height="16" viewBox="0 0 16 16" fill="none" xmlns="http://www.w3.org/2000/svg">
<g opacity="0.9" style="mix-blend-mode:multiply">
<rect x="4.65625" y="0.5" width="6.85223" height="9.13646" rx="3.42611" fill="#FF89F3"/>
</g>
<g opacity="0.9" style="mix-blend-mode:multiply">
<rect width="6.85233" height="8.91108" rx="3.42616" transform="matrix(0.380026 0.924976 -0.924971 0.380037 14.1484 2.63672)" fill="#FF89F3"/>
</g>
<g opacity="0.9" style="mix-blend-mode:multiply">
<rect width="6.85226" height="9.52558" rx="3.42613" transform="matrix(-0.866022 -0.500006 0.499993 -0.866029 6.53906 17.1328)" fill="#FF89F3"/>
</g>
<g opacity="0.9" style="mix-blend-mode:multiply">
<rect width="6.85226" height="9.75871" rx="3.42613" transform="matrix(0.866022 -0.500006 -0.499993 -0.866029 9.61133 17.1328)" fill="#FF89F3"/>
</g>
<g opacity="0.9" style="mix-blend-mode:multiply">
<rect width="6.85233" height="8.75209" rx="3.42616" transform="matrix(0.418379 -0.908272 0.908267 0.418391 -0.748047 8.78125)" fill="#FF89F3"/>
</g>
<circle cx="7.99458" cy="8.7309" r="4.03559" fill="#FFF6DB"/>
<path d="M5.3466 9.17424L4.22468 9.81873C3.97412 9.96266 3.67256 9.73822 3.73851 9.45688L4.00352 8.32654C4.03337 8.19923 3.98531 8.0663 3.88095 7.9875L3.01737 7.33545C2.79527 7.16776 2.86736 6.8174 3.13762 6.75102L4.31279 6.46234C4.4212 6.4357 4.50882 6.35612 4.54574 6.25077L4.89472 5.25478C4.98915 4.9853 5.3579 4.95446 5.49577 5.20452L5.98421 6.09044C6.03953 6.19078 6.14289 6.25528 6.25733 6.26089L7.46555 6.3201C7.75142 6.33411 7.88542 6.68026 7.6835 6.8831L6.9737 7.59613C6.89236 7.67784 6.85951 7.79603 6.88701 7.90799L7.19437 9.15919C7.25695 9.41395 7.0119 9.6365 6.76433 9.54975L5.62039 9.14893C5.52978 9.11718 5.42985 9.12642 5.3466 9.17424Z" fill="#30D862"/>
<path d="M10.7042 9.17424L11.8261 9.81873C12.0767 9.96266 12.3782 9.73822 12.3123 9.45688L12.0473 8.32654C12.0174 8.19923 12.0655 8.0663 12.1698 7.9875L13.0334 7.33545C13.2555 7.16776 13.1834 6.8174 12.9132 6.75102L11.738 6.46234C11.6296 6.4357 11.542 6.35612 11.505 6.25077L11.1561 5.25478C11.0616 4.9853 10.6929 4.95446 10.555 5.20452L10.0666 6.09044C10.0112 6.19078 9.90789 6.25528 9.79345 6.26089L8.58523 6.3201C8.29936 6.33411 8.16536 6.68026 8.36728 6.8831L9.07708 7.59613C9.15842 7.67784 9.19127 7.79603 9.16377 7.90799L8.85642 9.15919C8.79383 9.41395 9.03888 9.6365 9.28646 9.54975L10.4304 9.14893C10.521 9.11718 10.6209 9.12642 10.7042 9.17424Z" fill="#5282FF"/>
</svg>
