<svg width="16" height="16" viewBox="0 0 16 16" fill="none" xmlns="http://www.w3.org/2000/svg">
<g clip-path="url(#clip0_4337_29575)">
<path fill-rule="evenodd" clip-rule="evenodd" d="M8.81516 1.87545C9.29567 1.93175 9.426 2.2563 9.16895 2.68012C8.91169 3.10413 8.32092 4.20017 9.02958 4.80904C9.73808 5.41753 10.0274 4.40883 10.5792 5.12256C11.1301 5.83621 9.92265 6.53509 10.4942 7.2591C11.0658 7.98294 11.8296 8.01991 12.558 7.4044C13.2866 6.78848 13.7784 7.73631 13.2485 8.45288C12.7186 9.16946 11.207 9.65293 10.5522 10.4151C9.89744 11.1773 10.008 12.3051 9.14754 13.8249C8.28703 15.3447 6.76424 17.1168 3.52485 14.8179C0.285301 12.5187 0.516715 9.99081 1.67779 8.63904C2.83905 7.28733 3.92789 7.43019 5.41794 6.24712C6.19963 5.5144 6.26753 4.50123 6.82922 3.55861C7.39103 2.61604 8.33442 1.81925 8.81516 1.87545Z" fill="url(#paint0_linear_4337_29575)" fill-opacity="0.9"/>
<path fill-rule="evenodd" clip-rule="evenodd" d="M11.1226 3.79198C11.1377 3.866 11.1501 3.92629 11.1542 3.96479L11.1542 3.96485L7.77806 7.73035C7.54658 7.99978 7.57735 8.40587 7.84677 8.63736C8.1162 8.86884 8.52227 8.83808 8.75374 8.56864L12.1369 4.79502C12.3913 4.51181 12.9046 4.52793 13.2711 4.53946C13.303 4.54046 13.3338 4.54143 13.3631 4.54216C13.8064 4.55321 14.0364 4.45588 14.1514 4.26388C14.1863 4.2057 14.2113 4.14292 14.2435 4.06232C14.3175 3.87692 14.4291 3.59725 14.7841 3.06249C15.3195 2.25611 14.3883 1.32785 13.7591 1.5303C13.13 1.73276 11.5853 2.49939 11.2266 2.70527C10.9343 2.87307 11.0558 3.46579 11.1226 3.79198Z" fill="#7B36E7" fill-opacity="0.9"/>
<path fill-rule="evenodd" clip-rule="evenodd" d="M11.1226 3.79198C11.1377 3.866 11.1501 3.92629 11.1542 3.96479L11.1542 3.96485L7.77806 7.73035C7.54658 7.99978 7.57735 8.40587 7.84677 8.63736C8.1162 8.86884 8.52227 8.83808 8.75374 8.56864L12.1369 4.79502C12.3913 4.51181 12.9046 4.52793 13.2711 4.53946C13.303 4.54046 13.3338 4.54143 13.3631 4.54216C13.8064 4.55321 14.0364 4.45588 14.1514 4.26388C14.1863 4.2057 14.2113 4.14292 14.2435 4.06232C14.3175 3.87692 14.4291 3.59725 14.7841 3.06249C15.3195 2.25611 14.3883 1.32785 13.7591 1.5303C13.13 1.73276 11.5853 2.49939 11.2266 2.70527C10.9343 2.87307 11.0558 3.46579 11.1226 3.79198Z" fill="url(#paint1_linear_4337_29575)" fill-opacity="0.7"/>
<path d="M7.32008 11.603L5.00887 9.61727C4.92846 9.54819 4.80558 9.55935 4.7344 9.6422L4.36387 10.0735C4.29269 10.1564 4.30017 10.2795 4.38058 10.3486L6.69179 12.3344C6.77219 12.4035 6.89507 12.3923 6.96625 12.3094L7.33679 11.8781C7.40796 11.7953 7.40048 11.6721 7.32008 11.603Z" fill="#8F58E8" fill-opacity="0.8"/>
<path d="M8.02719 10.137L6.29468 8.64845C6.23441 8.59667 6.12785 8.62185 6.05667 8.7047L5.68613 9.136C5.61496 9.21885 5.60611 9.328 5.66639 9.37978L7.39889 10.8683C7.45917 10.9201 7.56573 10.8949 7.63691 10.8121L8.00744 10.3808C8.07862 10.2979 8.08746 10.1888 8.02719 10.137Z" fill="#8F58E8" fill-opacity="0.8"/>
</g>
<defs>
<linearGradient id="paint0_linear_4337_29575" x1="7.13082" y1="-0.982564" x2="9.74447" y2="14.2743" gradientUnits="userSpaceOnUse">
<stop offset="0.2" stop-color="#E85FFF"/>
<stop offset="1" stop-color="#00FFFF"/>
</linearGradient>
<linearGradient id="paint1_linear_4337_29575" x1="13.6158" y1="1.34094" x2="14.555" y2="8.4345" gradientUnits="userSpaceOnUse">
<stop offset="0.2" stop-color="#734CFF"/>
<stop offset="1" stop-color="#93EDFF" stop-opacity="0.7"/>
</linearGradient>
<clipPath id="clip0_4337_29575">
<rect width="16" height="16" fill="white"/>
</clipPath>
</defs>
</svg>
