<svg width="15" height="15" viewBox="0 0 15 15" fill="none" xmlns="http://www.w3.org/2000/svg">
<g clip-path="url(#clip0_4419_31084)">
<g filter="url(#filter0_i_4419_31084)">
<path d="M11.9067 8.32802C11.6636 6.16426 10.6181 4.63259 8.88123 3.90462C6.82435 3.04229 4.51096 3.73667 2.88646 5.65981C1.26196 7.58356 1.26196 10.8326 1.26196 10.8326C1.19845 12.8058 1.21555 13.08 1.24608 13.9319L1.82198 13.9887L11.5232 8.61017L11.9201 8.55643C11.9116 8.41047 11.9067 8.32741 11.9067 8.32741V8.32802Z" fill="url(#paint0_linear_4419_31084)"/>
</g>
<path d="M1.67214 10.1874C1.67214 10.1874 -0.0030494 9.71344 4.16952e-06 9.17724C0.00305774 8.64347 2.1259 8.36376 2.95037 8.35949C3.80109 8.35521 5.30894 8.47064 5.3633 8.76561C5.44513 9.21205 2.53752 10.3388 1.67214 10.188V10.1874Z" fill="url(#paint1_linear_4419_31084)"/>
<path fill-rule="evenodd" clip-rule="evenodd" d="M1.79163 13.1202C1.79163 13.1202 3.47231 15.5759 5.78936 13.8726C8.10641 12.1699 10.7587 9.33009 14.2056 9.1255C14.2056 9.1255 12.994 7.05701 10.0045 8.95144C7.01568 10.8459 2.99534 12.4814 1.79102 13.1202H1.79163Z" fill="url(#paint2_linear_4419_31084)"/>
<path fill-rule="evenodd" clip-rule="evenodd" d="M1.24152 11.4767C1.09983 12.1332 0.710196 12.9723 0.314453 13.3919C0.314453 13.3919 1.46504 15.4634 4.29997 14.6084C7.40912 13.6704 7.65035 10.5881 11.7208 8.21484C11.7208 8.21484 10.3076 8.4347 7.21308 10.1594C4.11798 11.884 2.4886 12.8129 1.22686 12.0703C1.22686 12.0703 1.23724 11.881 1.24213 11.4767H1.24152Z" fill="url(#paint3_linear_4419_31084)"/>
<path fill-rule="evenodd" clip-rule="evenodd" d="M1.24152 11.4767C1.09983 12.1332 0.710196 12.9723 0.314453 13.3919C0.314453 13.3919 1.46504 15.4634 4.29997 14.6084C7.40912 13.6704 7.65035 10.5881 11.7208 8.21484C11.7208 8.21484 10.3076 8.4347 7.21308 10.1594C4.11798 11.884 2.4886 12.8129 1.22686 12.0703C1.22686 12.0703 1.23724 11.881 1.24213 11.4767H1.24152Z" fill="url(#paint4_linear_4419_31084)"/>
<path d="M12.969 3.73438L12.9434 3.74537L12.969 3.73438Z" fill="#FBFF80"/>
<path fill-rule="evenodd" clip-rule="evenodd" d="M8.26572 1.84301C7.98907 2.42624 7.51759 2.89893 7.02597 3.35269C6.48121 3.46201 5.89126 3.52614 5.39048 3.71851C5.26589 3.76676 5.14314 3.81745 5.02344 3.8718C9.2166 1.87232 8.30969 0.145223 8.22969 0.0078125C8.59917 0.531805 8.54176 1.26344 8.26572 1.84301Z" fill="url(#paint5_linear_4419_31084)"/>
<path fill-rule="evenodd" clip-rule="evenodd" d="M5.02156 3.87376C5.02156 3.87376 5.0185 3.87559 5.01728 3.87559C3.84227 4.41119 2.89627 5.27596 2.49259 6.64274C2.1396 5.84331 2.13776 4.91136 2.41686 4.08385C2.69596 3.25633 3.29385 2.53935 4.05968 2.11124C4.75651 1.72221 5.55899 1.57686 6.3181 1.33075C7.07722 1.08463 7.83634 0.693771 8.22414 0C8.22597 0.00305357 8.22842 0.00549643 8.22964 0.00855C8.30964 0.145961 9.21655 1.87306 5.02217 3.87315L5.02156 3.87376Z" fill="url(#paint6_linear_4419_31084)"/>
<path fill-rule="evenodd" clip-rule="evenodd" d="M9.15813 2.48438C8.92118 2.92653 8.51505 3.26548 8.0729 3.51893C7.63074 3.77298 7.14766 3.95131 6.67497 4.14918C5.16773 4.78127 3.76736 5.40115 2.49219 6.64456C2.89587 5.27778 3.84248 4.41301 5.01688 3.87741C5.0181 3.87741 5.01932 3.8768 5.02116 3.87558C5.14086 3.82123 5.26361 3.77054 5.38819 3.72229C5.88959 3.52992 6.47893 3.46518 7.02369 3.35709C7.14339 3.33327 7.26064 3.30701 7.37546 3.27708C8.00877 3.10975 8.64269 2.88867 9.15691 2.48499L9.15813 2.48438Z" fill="url(#paint7_linear_4419_31084)"/>
<path fill-rule="evenodd" clip-rule="evenodd" d="M9.15813 2.48438C9.15813 2.48438 9.26196 3.13601 8.60666 3.79985C8.09793 3.87314 4.43731 4.77516 2.49219 6.64456C3.86874 5.2045 5.16773 4.7202 6.67497 4.08811C7.14766 3.89024 7.63074 3.71191 8.0729 3.45785C8.51505 3.20441 8.92118 2.92653 9.15813 2.48438Z" fill="url(#paint8_linear_4419_31084)"/>
</g>
<defs>
<filter id="filter0_i_4419_31084" x="0.447321" y="3.53906" width="11.4726" height="10.6421" filterUnits="userSpaceOnUse" color-interpolation-filters="sRGB">
<feFlood flood-opacity="0" result="BackgroundImageFix"/>
<feBlend mode="normal" in="SourceGraphic" in2="BackgroundImageFix" result="shape"/>
<feColorMatrix in="SourceAlpha" type="matrix" values="0 0 0 0 0 0 0 0 0 0 0 0 0 0 0 0 0 0 127 0" result="hardAlpha"/>
<feOffset dx="-0.771429" dy="0.192857"/>
<feGaussianBlur stdDeviation="0.514286"/>
<feComposite in2="hardAlpha" operator="arithmetic" k2="-1" k3="1"/>
<feColorMatrix type="matrix" values="0 0 0 0 0.936018 0 0 0 0 0.835873 0 0 0 0 0.835873 0 0 0 0.6 0"/>
<feBlend mode="normal" in2="shape" result="effect1_innerShadow_4419_31084"/>
</filter>
<linearGradient id="paint0_linear_4419_31084" x1="1.2186" y1="8.76407" x2="11.9201" y2="8.76407" gradientUnits="userSpaceOnUse">
<stop stop-color="#575757"/>
<stop offset="1"/>
</linearGradient>
<linearGradient id="paint1_linear_4419_31084" x1="1.18178e-08" y1="8.73273" x2="5.28331" y2="10.4166" gradientUnits="userSpaceOnUse">
<stop stop-color="#FAC67D"/>
<stop offset="1" stop-color="#E79F48"/>
</linearGradient>
<linearGradient id="paint2_linear_4419_31084" x1="1.66517" y1="12.1907" x2="14.3872" y2="10.4616" gradientUnits="userSpaceOnUse">
<stop offset="0.5" stop-color="#D62E2C"/>
<stop offset="1" stop-color="#EB4D4B"/>
</linearGradient>
<linearGradient id="paint3_linear_4419_31084" x1="0.18625" y1="12.4607" x2="12.0768" y2="10.8445" gradientUnits="userSpaceOnUse">
<stop offset="0.12" stop-color="#E09773"/>
<stop offset="1" stop-color="#F7CBA0"/>
</linearGradient>
<linearGradient id="paint4_linear_4419_31084" x1="-3.55711" y1="11.8278" x2="11.7756" y2="10.2092" gradientUnits="userSpaceOnUse">
<stop stop-color="#E73533"/>
<stop offset="1" stop-color="#FF6B69"/>
</linearGradient>
<linearGradient id="paint5_linear_4419_31084" x1="5.36471" y1="3.60996" x2="10.1366" y2="0.971253" gradientUnits="userSpaceOnUse">
<stop stop-color="#D62E2C"/>
<stop offset="1" stop-color="#FF6B69"/>
</linearGradient>
<linearGradient id="paint6_linear_4419_31084" x1="0.129544" y1="3.63611" x2="8.46125" y2="3.16495" gradientUnits="userSpaceOnUse">
<stop stop-color="#E73533"/>
<stop offset="1" stop-color="#FF6B69"/>
</linearGradient>
<linearGradient id="paint7_linear_4419_31084" x1="3.35423" y1="6.64456" x2="9.21288" y2="4.39511" gradientUnits="userSpaceOnUse">
<stop stop-color="#E73533"/>
<stop offset="1" stop-color="#FA605E"/>
</linearGradient>
<linearGradient id="paint8_linear_4419_31084" x1="3.14906" y1="6.36264" x2="9.21472" y2="0.36647" gradientUnits="userSpaceOnUse">
<stop stop-color="#D62E2C"/>
<stop offset="1" stop-color="#E8403E"/>
</linearGradient>
<clipPath id="clip0_4419_31084">
<rect width="14.2058" height="14.8123" fill="white"/>
</clipPath>
</defs>
</svg>
