<svg width="18" height="18" viewBox="0 0 18 18" fill="none" xmlns="http://www.w3.org/2000/svg">
<g opacity="0.2">
<path d="M9.54226 16.1059L9.92658 16.6145L9.92658 16.6145L9.54226 16.1059ZM8.44926 16.1043L8.83496 15.5967H8.83496L8.44926 16.1043ZM8.99518 1.76562V1.12812C5.24787 1.12812 2.1125 4.08589 2.1125 7.796H2.75H3.3875C3.3875 4.8363 5.90489 2.40313 8.99518 2.40313V1.76562ZM15.25 7.796H15.8875C15.8875 4.08527 12.7515 1.12812 8.99518 1.12812V1.76562V2.40313C12.0958 2.40313 14.6125 4.83692 14.6125 7.796H15.25ZM9.54226 16.1059L9.92658 16.6145C10.7069 16.0249 12.1761 14.8301 13.4564 13.3023C14.7219 11.792 15.8875 9.85629 15.8875 7.796H15.25H14.6125C14.6125 9.39919 13.6864 11.0426 12.4791 12.4834C11.2865 13.9067 9.90189 15.0351 9.15795 15.5972L9.54226 16.1059ZM8.44926 16.1043L8.06355 16.6119C8.61692 17.0324 9.3719 17.0336 9.92658 16.6145L9.54226 16.1059L9.15795 15.5972C9.05927 15.6718 8.9336 15.6717 8.83496 15.5967L8.44926 16.1043ZM2.75 7.796H2.1125C2.1125 9.84745 3.27687 11.7817 4.53992 13.2925C5.81798 14.8213 7.28477 16.0201 8.06355 16.6119L8.44926 16.1043L8.83496 15.5967C8.09213 15.0322 6.7093 13.8996 5.51813 12.4748C4.31195 11.0319 3.3875 9.39011 3.3875 7.796H2.75ZM8.99455 10.2646V9.62715C7.82804 9.62715 6.88848 8.70473 6.88848 7.53792H6.25098H5.61348C5.61348 9.42371 7.13878 10.9021 8.99455 10.9021V10.2646ZM11.751 7.53792H11.1135C11.1135 8.70103 10.1658 9.62715 8.99455 9.62715V10.2646V10.9021C10.8476 10.9021 12.3885 9.4274 12.3885 7.53792H11.751ZM8.99455 4.76465V5.40215C10.1499 5.40215 11.1135 6.37089 11.1135 7.53792H11.751H12.3885C12.3885 5.67615 10.8635 4.12715 8.99455 4.12715V4.76465ZM6.25098 7.53792H6.88848C6.88848 6.36714 7.84389 5.40215 8.99455 5.40215V4.76465V4.12715C7.12293 4.12715 5.61348 5.67989 5.61348 7.53792H6.25098Z" fill="var(------icon_primary, #2F3033)"/>
</g>
</svg>
