<svg width="24" height="24" viewBox="0 0 24 24" fill="none" xmlns="http://www.w3.org/2000/svg">
<path fill-rule="evenodd" clip-rule="evenodd" d="M7.90039 10.1056C7.90039 7.84125 9.73602 6.00562 12.0004 6.00562C14.2648 6.00562 16.1004 7.84125 16.1004 10.1056C16.1004 12.37 14.2648 14.2056 12.0004 14.2056C9.73602 14.2056 7.90039 12.37 7.90039 10.1056ZM12.0004 7.70562C10.6749 7.70562 9.60039 8.78013 9.60039 10.1056C9.60039 11.4311 10.6749 12.5056 12.0004 12.5056C13.3259 12.5056 14.4004 11.4311 14.4004 10.1056C14.4004 8.78013 13.3259 7.70562 12.0004 7.70562Z" fill="#1A1C1E"/>
<path fill-rule="evenodd" clip-rule="evenodd" d="M12.0004 2.14844C6.56039 2.14844 2.15039 6.55843 2.15039 11.9984C2.15039 17.4384 6.56039 21.8484 12.0004 21.8484C17.4404 21.8484 21.8504 17.4384 21.8504 11.9984C21.8504 6.55843 17.4404 2.14844 12.0004 2.14844ZM3.85039 11.9984C3.85039 7.49732 7.49927 3.84844 12.0004 3.84844C16.5015 3.84844 20.1504 7.49732 20.1504 11.9984C20.1504 13.8435 19.5373 15.5454 18.5037 16.9114C17.3422 15.7348 15.7287 15.0056 13.9448 15.0056H10.0559C8.27203 15.0056 6.65849 15.7348 5.49707 16.9114C4.46349 15.5453 3.85039 13.8435 3.85039 11.9984ZM6.65932 18.1545C8.08971 19.3966 9.95725 20.1484 12.0004 20.1484C14.0435 20.1484 15.911 19.3966 17.3414 18.1546C16.485 17.2616 15.2798 16.7056 13.9448 16.7056H10.0559C8.72089 16.7056 7.51574 17.2615 6.65932 18.1545Z" fill="#1A1C1E"/>
<path fill-rule="evenodd" clip-rule="evenodd" d="M7.90039 10.1056C7.90039 7.84125 9.73602 6.00562 12.0004 6.00562C14.2648 6.00562 16.1004 7.84125 16.1004 10.1056C16.1004 12.37 14.2648 14.2056 12.0004 14.2056C9.73602 14.2056 7.90039 12.37 7.90039 10.1056ZM12.0004 7.70562C10.6749 7.70562 9.60039 8.78013 9.60039 10.1056C9.60039 11.4311 10.6749 12.5056 12.0004 12.5056C13.3259 12.5056 14.4004 11.4311 14.4004 10.1056C14.4004 8.78013 13.3259 7.70562 12.0004 7.70562Z" stroke="#FAFAFB" stroke-width="0.25"/>
<path fill-rule="evenodd" clip-rule="evenodd" d="M12.0004 2.14844C6.56039 2.14844 2.15039 6.55843 2.15039 11.9984C2.15039 17.4384 6.56039 21.8484 12.0004 21.8484C17.4404 21.8484 21.8504 17.4384 21.8504 11.9984C21.8504 6.55843 17.4404 2.14844 12.0004 2.14844ZM3.85039 11.9984C3.85039 7.49732 7.49927 3.84844 12.0004 3.84844C16.5015 3.84844 20.1504 7.49732 20.1504 11.9984C20.1504 13.8435 19.5373 15.5454 18.5037 16.9114C17.3422 15.7348 15.7287 15.0056 13.9448 15.0056H10.0559C8.27203 15.0056 6.65849 15.7348 5.49707 16.9114C4.46349 15.5453 3.85039 13.8435 3.85039 11.9984ZM6.65932 18.1545C8.08971 19.3966 9.95725 20.1484 12.0004 20.1484C14.0435 20.1484 15.911 19.3966 17.3414 18.1546C16.485 17.2616 15.2798 16.7056 13.9448 16.7056H10.0559C8.72089 16.7056 7.51574 17.2615 6.65932 18.1545Z" stroke="#FAFAFB" stroke-width="0.25"/>
</svg>
