<svg width="10" height="10" viewBox="0 0 10 10" fill="none" xmlns="http://www.w3.org/2000/svg">
<path fill-rule="evenodd" clip-rule="evenodd" d="M3.08361 0.998264C2.9453 1.13657 2.9453 1.36082 3.08361 1.49913L6.36221 4.77773C6.44885 4.86436 6.49857 4.91447 6.53214 4.95403C6.54587 4.9702 6.5527 4.97989 6.55563 4.98439C6.55785 4.9938 6.55785 5.0036 6.55563 5.01301C6.5527 5.01751 6.54587 5.0272 6.53214 5.04337C6.49857 5.08292 6.44884 5.13303 6.36221 5.21967L3.08361 8.49827C2.9453 8.63658 2.9453 8.86082 3.08361 8.99913C3.22192 9.13744 3.44617 9.13744 3.58448 8.99913L6.87151 5.7121C6.94675 5.63688 7.01752 5.56612 7.07213 5.50179C7.13147 5.43189 7.19224 5.34664 7.2279 5.2369C7.2782 5.08208 7.2782 4.91531 7.2279 4.7605C7.19224 4.65075 7.13147 4.56551 7.07214 4.49561C7.01752 4.43127 6.94675 4.36051 6.87151 4.28529L3.58448 0.998264C3.44617 0.859954 3.22192 0.859954 3.08361 0.998264Z" fill="var(------icon_nav_primary, #2F3033)"/>
</svg>
