<svg width="20" height="20" viewBox="0 0 20 20" fill="none" xmlns="http://www.w3.org/2000/svg">
<path d="M4.85641 1.26192C4.79552 1.14707 4.63098 1.14707 4.57009 1.26192L3.70267 2.89799L2.0666 3.7654C1.95176 3.82629 1.95176 3.99083 2.0666 4.05172L3.70267 4.91913L4.57009 6.5552C4.63098 6.67005 4.79552 6.67005 4.85641 6.5552L5.72382 4.91913L7.35989 4.05172C7.47474 3.99083 7.47474 3.82629 7.35989 3.7654L5.72382 2.89799L4.85641 1.26192Z" fill="var(------icon_primary, black)" fill-opacity="0.9"/>
<path d="M15.9277 12.9615C15.8668 12.8467 15.7022 12.8467 15.6413 12.9615L15.0792 14.0218L14.0189 14.584C13.9041 14.6449 13.9041 14.8094 14.0189 14.8703L15.0792 15.4324L15.6413 16.4927C15.7022 16.6076 15.8668 16.6076 15.9277 16.4927L16.4898 15.4324L17.5501 14.8703C17.6649 14.8094 17.6649 14.6449 17.5501 14.584L16.4898 14.0218L15.9277 12.9615Z" fill="var(------icon_primary, black)" fill-opacity="0.9"/>
<path fill-rule="evenodd" clip-rule="evenodd" d="M12.9087 2.88104C13.6037 2.186 14.7306 2.186 15.4256 2.88104L16.9409 4.39627C17.6359 5.09131 17.6359 6.21819 16.9409 6.91323L7.09188 16.7622C6.39684 17.4573 5.26996 17.4573 4.57491 16.7622L3.05969 15.247C2.36465 14.552 2.36465 13.4251 3.05969 12.73L12.9087 2.88104ZM14.4239 3.88277C14.2821 3.74098 14.0522 3.74098 13.9104 3.88278L13.1486 4.64456L15.1773 6.67328L15.9391 5.9115C16.0809 5.7697 16.0809 5.5398 15.9391 5.398L14.4239 3.88277ZM14.1756 7.67501L12.1469 5.64629L4.06142 13.7318C3.91962 13.8736 3.91962 14.1035 4.06142 14.2453L5.57665 15.7605C5.71845 15.9023 5.94835 15.9023 6.09014 15.7605L14.1756 7.67501Z" fill="var(------icon_primary, black)" fill-opacity="0.9"/>
</svg>
