<svg width="24" height="24" viewBox="0 0 24 24" fill="none" xmlns="http://www.w3.org/2000/svg">
<path d="M5.82613 1.51352C5.75306 1.3757 5.55561 1.3757 5.48254 1.51352L4.44165 3.4768L2.47836 4.5177C2.34055 4.59077 2.34055 4.78822 2.47836 4.86128L4.44165 5.90218L5.48254 7.86546C5.55561 8.00328 5.75306 8.00328 5.82613 7.86546L6.86702 5.90218L8.83031 4.86128C8.96813 4.78822 8.96813 4.59077 8.83031 4.5177L6.86702 3.4768L5.82613 1.51352Z" fill="#1A1A1A"/>
<path d="M19.1116 15.5531C19.0386 15.4153 18.8411 15.4153 18.768 15.5531L18.0935 16.8254L16.8211 17.5C16.6833 17.573 16.6833 17.7705 16.8211 17.8436L18.0935 18.5181L18.768 19.7905C18.8411 19.9283 19.0386 19.9283 19.1116 19.7905L19.7862 18.5181L21.0585 17.8436C21.1964 17.7705 21.1964 17.573 21.0585 17.5L19.7862 16.8254L19.1116 15.5531Z" fill="#1A1A1A"/>
<path fill-rule="evenodd" clip-rule="evenodd" d="M15.4888 3.45647C16.3229 2.62242 17.6752 2.62242 18.5092 3.45647L20.3275 5.27474C21.1615 6.10879 21.1615 7.46105 20.3275 8.2951L8.50869 20.1139C7.67464 20.9479 6.32238 20.9479 5.48834 20.1139L3.67006 18.2956C2.83601 17.4616 2.83601 16.1093 3.67006 15.2753L15.4888 3.45647ZM17.3071 4.65855C17.137 4.48839 16.8611 4.48839 16.6909 4.65855L15.7768 5.57269L18.2113 8.00715L19.1254 7.09302C19.2956 6.92286 19.2956 6.64698 19.1254 6.47682L17.3071 4.65855ZM17.0092 9.20924L14.5747 6.77477L4.87214 16.4773C4.70199 16.6475 4.70199 16.9234 4.87214 17.0935L6.69042 18.9118C6.86057 19.082 7.13645 19.082 7.30661 18.9118L17.0092 9.20924Z" fill="#1A1A1A"/>
</svg>
