<svg width="16" height="16" viewBox="0 0 16 16" fill="none" xmlns="http://www.w3.org/2000/svg">
<path fill-rule="evenodd" clip-rule="evenodd" d="M2.9316 2.9316C3.15289 2.7103 3.51169 2.7103 3.73299 2.9316L7.99896 7.19757L12.2649 2.9316C12.4862 2.7103 12.845 2.7103 13.0663 2.9316C13.2876 3.15289 13.2876 3.51169 13.0663 3.73299L8.80035 7.99896L13.0663 12.2649C13.2876 12.4862 13.2876 12.845 13.0663 13.0663C12.845 13.2876 12.4862 13.2876 12.2649 13.0663L7.99896 8.80035L3.73299 13.0663C3.51169 13.2876 3.15289 13.2876 2.9316 13.0663C2.7103 12.845 2.7103 12.4862 2.9316 12.2649L7.19757 7.99896L2.9316 3.73299C2.7103 3.51169 2.7103 3.15289 2.9316 2.9316Z" fill="var(------overlay_surface_fg, black)" fill-opacity="0.6"/>
<path d="M12.1943 2.86133C12.4547 2.60098 12.8764 2.60098 13.1367 2.86133C13.397 3.12168 13.397 3.54338 13.1367 3.80371L8.94141 7.99902L13.1367 12.1943C13.3971 12.4547 13.3971 12.8764 13.1367 13.1367C12.8764 13.3971 12.4547 13.3971 12.1943 13.1367L7.99902 8.94141L3.80371 13.1367C3.54338 13.397 3.12168 13.397 2.86133 13.1367C2.60098 12.8764 2.60098 12.4547 2.86133 12.1943L7.05664 7.99902L2.86133 3.80371C2.60098 3.54336 2.60098 3.12168 2.86133 2.86133C3.12168 2.60098 3.54336 2.60098 3.80371 2.86133L7.99902 7.05664L12.1943 2.86133Z" stroke="var(------overlay_surface_fg, black)" stroke-opacity="0.6" stroke-width="0.2" stroke-linecap="round"/>
</svg>
