<svg width="24" height="24" viewBox="0 0 24 24" fill="none" xmlns="http://www.w3.org/2000/svg">
<path fill-rule="evenodd" clip-rule="evenodd" d="M15.6013 2.3974C15.9332 2.72934 15.9332 3.26753 15.6013 3.59948L7.73265 11.4681C7.52472 11.676 7.40539 11.7963 7.32481 11.8912C7.29186 11.93 7.27547 11.9533 7.26844 11.9641C7.26312 11.9867 7.26312 12.0102 7.26844 12.0328C7.27547 12.0436 7.29186 12.0668 7.32481 12.1056C7.4054 12.2006 7.52473 12.3208 7.73265 12.5288L15.6013 20.3974C15.9332 20.7293 15.9332 21.2675 15.6013 21.5995C15.2693 21.9314 14.7311 21.9314 14.3992 21.5995L6.51032 13.7106C6.32975 13.5301 6.15991 13.3603 6.02883 13.2058C5.88642 13.0381 5.74058 12.8335 5.655 12.5701C5.53427 12.1986 5.53427 11.7983 5.655 11.4268C5.74058 11.1634 5.88642 10.9588 6.02883 10.791C6.15991 10.6366 6.32976 10.4668 6.51033 10.2863L14.3992 2.3974C14.7311 2.06545 15.2693 2.06545 15.6013 2.3974Z" fill="var(------icon_nav_secondary, #1A1A1A)"/>
</svg>
