<svg width="20" height="20" viewBox="0 0 20 20" fill="none" xmlns="http://www.w3.org/2000/svg">
<path d="M12.8329 8.6671C12.5563 8.94372 12.5563 9.39222 12.8329 9.66884C13.1095 9.94546 13.558 9.94546 13.8347 9.66884L16.5787 6.92476C17.1808 6.3227 17.1808 5.34657 16.5787 4.74451L13.8347 2.00043C13.558 1.72381 13.1095 1.72381 12.8329 2.00043C12.5563 2.27706 12.5563 2.72555 12.8329 3.00217L14.9577 5.12695H8.33394C5.18132 5.12695 2.62561 7.68266 2.62561 10.8353C2.62561 13.9879 5.18132 16.5436 8.33394 16.5436H15.8339C16.2251 16.5436 16.5423 16.2265 16.5423 15.8353C16.5423 15.4441 16.2251 15.127 15.8339 15.127H8.33394C5.96372 15.127 4.04228 13.2055 4.04228 10.8353C4.04228 8.46507 5.96372 6.54362 8.33394 6.54362H14.9564L12.8329 8.6671Z" fill="var(------icon_tertiary, #CCCCCE)"/>
</svg>
