<svg width="18" height="18" viewBox="0 0 18 18" fill="none" xmlns="http://www.w3.org/2000/svg">
<path fill-rule="evenodd" clip-rule="evenodd" d="M11.6252 4.61328C12.8057 4.61328 13.7627 5.57027 13.7627 6.75078C13.7627 7.93129 12.8057 8.88828 11.6252 8.88828C10.4447 8.88828 9.4877 7.93129 9.4877 6.75078C9.4877 5.57027 10.4447 4.61328 11.6252 4.61328ZM12.4877 6.75078C12.4877 6.27444 12.1015 5.88828 11.6252 5.88828C11.1488 5.88828 10.7627 6.27444 10.7627 6.75078C10.7627 7.22713 11.1488 7.61328 11.6252 7.61328C12.1015 7.61328 12.4877 7.22713 12.4877 6.75078Z" fill="var(------icon_primary, black)" fill-opacity="0.9"/>
<path fill-rule="evenodd" clip-rule="evenodd" d="M11.9526 2.36328H6.04782C5.33598 2.36328 4.76296 2.36327 4.29919 2.40116C3.82204 2.44015 3.40466 2.5224 3.01905 2.71887C2.40517 3.03166 1.90607 3.53076 1.59329 4.14464C1.39681 4.53025 1.31456 4.94763 1.27557 5.42477C1.23768 5.88853 1.23769 6.46151 1.23769 7.17331V10.8282C1.23769 11.54 1.23768 12.113 1.27557 12.5768C1.31456 13.0539 1.39681 13.4713 1.59329 13.8569C1.90607 14.4708 2.40517 14.9699 3.01905 15.2827C3.40466 15.4792 3.82204 15.5614 4.29919 15.6004C4.76294 15.6383 5.33592 15.6383 6.04773 15.6383H11.9526C12.6644 15.6383 13.2374 15.6383 13.7012 15.6004C14.1784 15.5614 14.5957 15.4792 14.9813 15.2827C15.5952 14.9699 16.0943 14.4708 16.4071 13.8569C16.6036 13.4713 16.6858 13.0539 16.7248 12.5768C16.7627 12.113 16.7627 11.54 16.7627 10.8282V7.17341C16.7627 6.46156 16.7627 5.88855 16.7248 5.42477C16.6858 4.94763 16.6036 4.53025 16.4071 4.14464C16.0943 3.53076 15.5952 3.03166 14.9813 2.71887C14.5957 2.5224 14.1784 2.44015 13.7012 2.40116C13.2374 2.36327 12.6644 2.36328 11.9526 2.36328ZM13.5974 3.67193C13.9957 3.70447 14.2266 3.76528 14.4025 3.85491C14.7765 4.04545 15.0805 4.3495 15.2711 4.72348C15.3607 4.89939 15.4215 5.1303 15.454 5.5286C15.4872 5.93434 15.4877 6.45519 15.4877 7.20078V10.8008C15.4877 11.5373 15.4872 12.0545 15.4552 12.4581L14.0144 11.1482C13.1431 10.3562 11.8446 10.2587 10.8648 10.9119L10.642 11.0604L8.51555 8.75671C7.527 7.68578 5.84607 7.65218 4.81551 8.68274L2.51273 10.9855L2.5127 7.20078C2.5127 6.45519 2.51319 5.93434 2.54634 5.5286C2.57888 5.1303 2.63969 4.89939 2.72932 4.72348C2.91987 4.3495 3.22392 4.04545 3.59789 3.85491C3.7738 3.76528 4.00471 3.70447 4.40301 3.67193C4.80875 3.63878 5.32961 3.63828 6.0752 3.63828H11.9252C12.6708 3.63828 13.1916 3.63878 13.5974 3.67193ZM14.4025 14.1467C14.6117 14.0401 14.799 13.898 14.9567 13.728L13.1567 12.0916C12.7183 11.6931 12.065 11.6441 11.5721 11.9727L10.9421 12.3927C10.6549 12.5842 10.2712 12.5384 10.0371 12.2848L7.57868 9.62152C7.08131 9.0827 6.23557 9.06579 5.71707 9.5843L2.57396 12.7274C2.60904 12.9767 2.66074 13.1435 2.72932 13.2781C2.91987 13.6521 3.22392 13.9561 3.59789 14.1467C3.7738 14.2363 4.00471 14.2971 4.40301 14.3296C4.80875 14.3628 5.32961 14.3633 6.07519 14.3633H11.9252C12.6708 14.3633 13.1916 14.3628 13.5974 14.3296C13.9957 14.2971 14.2266 14.2363 14.4025 14.1467Z" fill="var(------icon_primary, black)" fill-opacity="0.9"/>
</svg>
