<svg width="20" height="20" viewBox="0 0 20 20" fill="none" xmlns="http://www.w3.org/2000/svg">
<path d="M7.16708 8.6671C7.4437 8.94372 7.4437 9.39222 7.16708 9.66884C6.89046 9.94546 6.44197 9.94546 6.16535 9.66884L3.42127 6.92476C2.81921 6.3227 2.81921 5.34657 3.42127 4.74451L6.16535 2.00043C6.44197 1.72381 6.89046 1.72381 7.16708 2.00043C7.4437 2.27706 7.4437 2.72555 7.16708 3.00217L5.0423 5.12695H11.6661C14.8187 5.12695 17.3744 7.68266 17.3744 10.8353C17.3744 13.9879 14.8187 16.5436 11.6661 16.5436H4.16605C3.77485 16.5436 3.45772 16.2265 3.45772 15.8353C3.45772 15.4441 3.77485 15.127 4.16605 15.127H11.6661C14.0363 15.127 15.9577 13.2055 15.9577 10.8353C15.9577 8.46507 14.0363 6.54362 11.6661 6.54362H5.0436L7.16708 8.6671Z" fill="var(------icon_primary, black)" fill-opacity="0.9"/>
</svg>
