<svg width="18" height="18" viewBox="0 0 18 18" fill="none" xmlns="http://www.w3.org/2000/svg">
<path fill-rule="evenodd" clip-rule="evenodd" d="M2.88828 7.87578C2.88828 5.12126 5.12126 2.88828 7.87578 2.88828C10.6303 2.88828 12.8633 5.12126 12.8633 7.87578C12.8633 10.6303 10.6303 12.8633 7.87578 12.8633C5.12126 12.8633 2.88828 10.6303 2.88828 7.87578ZM7.87578 1.61328C4.4171 1.61328 1.61328 4.4171 1.61328 7.87578C1.61328 11.3345 4.4171 14.1383 7.87578 14.1383C9.1831 14.1383 10.3969 13.7377 11.401 13.0526L14.175 15.8266C14.424 16.0755 14.8276 16.0755 15.0766 15.8266C15.3255 15.5776 15.3255 15.174 15.0766 14.925L12.3792 12.2276C13.4682 11.1009 14.1383 9.56658 14.1383 7.87578C14.1383 4.4171 11.3345 1.61328 7.87578 1.61328Z" fill="var(------icon_secondary, #909094)"/>
</svg>
