<svg width="52" height="52" viewBox="0 0 52 52" fill="none" xmlns="http://www.w3.org/2000/svg">
<rect width="52" height="52" rx="14" fill="#0085FF"/>
<path fill-rule="evenodd" clip-rule="evenodd" d="M14 15C12.3431 15 11 16.3431 11 18V34C11 35.6569 12.3431 37 14 37H38C39.6569 37 41 35.6569 41 34V18C41 16.3431 39.6569 15 38 15H14ZM14.5 17.5C14.5 17.5 21.2613 23.5903 26.5 23.5C31.5648 23.4127 38 17.5 38 17.5C38 17.5 31.9698 25.3917 26.5 25.5C20.8689 25.6115 14.5 17.5 14.5 17.5Z" fill="white"/>
</svg>
