<svg width="18" height="18" viewBox="0 0 18 18" fill="none" xmlns="http://www.w3.org/2000/svg">
<g opacity="0.2">
<path d="M8.16776 2.55784C8.16776 2.09874 8.53993 1.72656 8.99904 1.72656C9.45814 1.72656 9.83032 2.09874 9.83032 2.55784V2.87216C9.83032 2.8894 9.82979 2.90652 9.82876 2.92351C12.2715 3.32485 13.865 5.48518 13.865 7.99303L13.8657 10.4784L15.375 12.4434C15.4048 12.4823 15.4301 12.5245 15.4503 12.5691C15.5712 12.8365 15.5898 13.1138 15.5294 13.3672C15.5198 13.357 15.51 13.347 15.5 13.3371L12.5907 10.4486L12.59 7.99303C12.59 5.80579 11.0953 4.13179 8.99836 4.13179C8.19538 4.13179 7.48071 4.37725 6.90446 4.803L5.9903 3.89536C6.59745 3.40319 7.33371 3.06034 8.1693 2.92329C8.16828 2.90638 8.16776 2.88933 8.16776 2.87216V2.55784Z" fill="var(------icon_primary, #2F3033)"/>
<path d="M4.42553 3.52578C4.17657 3.27682 3.77293 3.27682 3.52397 3.52578C3.27501 3.77474 3.27501 4.17838 3.52397 4.42734L14.024 14.9273C14.2729 15.1763 14.6766 15.1763 14.9255 14.9273C15.1745 14.6784 15.1745 14.2747 14.9255 14.0258L4.42553 3.52578Z" fill="var(------icon_primary, #2F3033)"/>
<path d="M6.66144 15.0974C6.61485 14.9928 6.69617 14.8816 6.81063 14.8816H11.1912C11.3057 14.8816 11.387 14.9928 11.3404 15.0974C10.9756 15.916 10.0657 16.4961 9.00093 16.4961C7.93619 16.4961 7.02628 15.916 6.66144 15.0974Z" fill="var(------icon_primary, #2F3033)"/>
<path d="M4.1317 7.99303C4.1317 7.46863 4.20138 6.95943 4.33392 6.47833L5.42635 7.56296C5.41334 7.70381 5.4067 7.84728 5.4067 7.99303V10.6969C5.4067 10.8374 5.36031 10.9739 5.27472 11.0853L3.75999 13.0568H10.9597L12.2439 14.3318H3.69089C2.7878 14.3318 2.17143 13.4021 2.54807 12.5691C2.56828 12.5244 2.59356 12.4822 2.62344 12.4433L4.1317 10.4803V7.99303Z" fill="var(------icon_primary, #2F3033)"/>
</g>
</svg>
