<svg width="18" height="18" viewBox="0 0 18 18" fill="none" xmlns="http://www.w3.org/2000/svg">
<g opacity="0.2" clip-path="url(#clip0_4337_29750)">
<path d="M4.52637 7.13184C4.43703 7.49021 4.38867 7.86493 4.38867 8.25098V12.8633H10.2578L12.3379 14.9434C12.1559 15.3644 11.8978 15.7487 11.5732 16.0732C11.2355 16.411 10.8339 16.6785 10.3926 16.8613C9.95133 17.0441 9.47857 17.1387 9.00098 17.1387C8.52339 17.1387 8.05062 17.0441 7.60938 16.8613C7.16805 16.6785 6.76648 16.411 6.42871 16.0732C6.09094 15.7355 5.82343 15.3339 5.64062 14.8926C5.53993 14.6494 5.46699 14.3965 5.4209 14.1387H2.25098C1.89889 14.1387 1.61328 13.8531 1.61328 13.501C1.61328 13.1489 1.89889 12.8633 2.25098 12.8633H3.11328V8.25098C3.11328 7.49841 3.25435 6.77876 3.51172 6.11719L4.52637 7.13184ZM6.72852 14.1387C6.75382 14.2288 6.78238 14.3184 6.81836 14.4053C6.93708 14.6918 7.11075 14.9525 7.33008 15.1719C7.54941 15.3912 7.81012 15.5649 8.09668 15.6836C8.38331 15.8023 8.69073 15.8633 9.00098 15.8633C9.31122 15.8633 9.61864 15.8023 9.90527 15.6836C10.1918 15.5649 10.4525 15.3912 10.6719 15.1719C10.8912 14.9525 11.0649 14.6918 11.1836 14.4053C11.2196 14.3184 11.2481 14.2288 11.2734 14.1387H6.72852ZM9.00098 0.863281C9.35306 0.863281 9.63867 1.14889 9.63867 1.50098V2.39746C12.5903 2.71539 14.8887 5.21487 14.8887 8.25098V12.8633H15.751C16.1031 12.8633 16.3887 13.1489 16.3887 13.501C16.3887 13.8531 16.1031 14.1387 15.751 14.1387H15.2441L13.6133 12.5078V8.25098C13.6133 5.70356 11.5484 3.63867 9.00098 3.63867C7.81771 3.63867 6.73834 4.08396 5.92188 4.81641L5.01953 3.91406C5.92061 3.08641 7.0801 2.53567 8.36328 2.39746V1.50098C8.36328 1.14889 8.64889 0.863281 9.00098 0.863281Z" fill="var(------icon_primary, #2F3033)"/>
<path d="M2.25 3L15.375 16.125" stroke="var(------icon_primary, #2F3033)" stroke-width="1.275" stroke-linecap="round" stroke-linejoin="round"/>
</g>
<defs>
<clipPath id="clip0_4337_29750">
<rect width="18" height="18" fill="white"/>
</clipPath>
</defs>
</svg>
