<svg width="52" height="40" viewBox="0 0 52 40" fill="none" xmlns="http://www.w3.org/2000/svg">
<rect width="52" height="52" rx="14" fill="#17D036"/>
<mask id="path-2-inside-1_4337_29761" fill="white">
<path fill-rule="evenodd" clip-rule="evenodd" d="M22.6529 16.0547C22.853 16.0598 23.053 16.0797 23.2505 16.1133C23.8622 16.2172 24.4428 16.4568 24.9497 16.8145L33.3355 23.6211C33.4098 23.6818 33.4691 23.759 33.5103 23.8457C33.5514 23.9324 33.5728 24.0271 33.5728 24.123C33.5728 24.219 33.5514 24.3137 33.5103 24.4004C33.4691 24.4871 33.4098 24.5643 33.3355 24.625L29.187 28.0107L41.7349 38.2334L41.73 38.25C41.8484 38.351 41.9327 38.4862 41.9722 38.6367C42.0116 38.7873 42.0043 38.9467 41.9507 39.0928C41.897 39.239 41.7991 39.3658 41.6714 39.4551C41.5439 39.5441 41.3923 39.5924 41.2368 39.5928H37.9624C37.6947 39.5988 37.4266 39.5791 37.1626 39.5342C36.5494 39.4283 35.9686 39.1837 35.4634 38.8203L21.3658 27.3096C21.2921 27.2479 21.2326 27.1701 21.1919 27.083C21.1514 26.9961 21.1305 26.9015 21.1304 26.8057C21.1304 26.7096 21.1513 26.6144 21.1919 26.5273C21.2326 26.4403 21.2921 26.3625 21.3658 26.3008L25.521 22.9316L18.688 17.3994C18.5688 17.2986 18.483 17.1636 18.4429 17.0127C18.4028 16.8618 18.4108 16.7023 18.4644 16.5557C18.5179 16.409 18.6148 16.2819 18.7427 16.1924C18.8706 16.1029 19.0231 16.0549 19.1792 16.0547H22.6529ZM14.2447 25.293C14.4447 25.2982 14.6442 25.3185 14.8413 25.3535C15.4537 25.4558 16.0352 25.6963 16.5415 26.0557L23.4185 31.6445C23.4919 31.7058 23.551 31.7824 23.5913 31.8691C23.6317 31.956 23.6523 32.0507 23.6519 32.1465C23.6553 32.245 23.6368 32.3434 23.5972 32.4336C23.5576 32.5237 23.4981 32.6039 23.4234 32.668L21.1617 34.5137C20.995 34.6505 20.7855 34.725 20.5699 34.7256C20.3467 34.7223 20.1318 34.6398 19.9644 34.4922L10.2652 26.6357C10.1468 26.5348 10.0625 26.3995 10.023 26.249C9.98348 26.0986 9.99111 25.94 10.0445 25.7939C10.0979 25.6478 10.1945 25.5211 10.3218 25.4316C10.4491 25.3422 10.6008 25.2937 10.7564 25.293H14.2447ZM35.48 13.3594C37.7694 13.3596 39.6253 15.2155 39.6255 17.5049C39.6255 19.7944 37.7695 21.6511 35.48 21.6514C33.1903 21.6514 31.3335 19.7946 31.3335 17.5049C31.3337 15.2153 33.1904 13.3594 35.48 13.3594Z"/>
</mask>
<path fill-rule="evenodd" clip-rule="evenodd" d="M22.6529 16.0547C22.853 16.0598 23.053 16.0797 23.2505 16.1133C23.8622 16.2172 24.4428 16.4568 24.9497 16.8145L33.3355 23.6211C33.4098 23.6818 33.4691 23.759 33.5103 23.8457C33.5514 23.9324 33.5728 24.0271 33.5728 24.123C33.5728 24.219 33.5514 24.3137 33.5103 24.4004C33.4691 24.4871 33.4098 24.5643 33.3355 24.625L29.187 28.0107L41.7349 38.2334L41.73 38.25C41.8484 38.351 41.9327 38.4862 41.9722 38.6367C42.0116 38.7873 42.0043 38.9467 41.9507 39.0928C41.897 39.239 41.7991 39.3658 41.6714 39.4551C41.5439 39.5441 41.3923 39.5924 41.2368 39.5928H37.9624C37.6947 39.5988 37.4266 39.5791 37.1626 39.5342C36.5494 39.4283 35.9686 39.1837 35.4634 38.8203L21.3658 27.3096C21.2921 27.2479 21.2326 27.1701 21.1919 27.083C21.1514 26.9961 21.1305 26.9015 21.1304 26.8057C21.1304 26.7096 21.1513 26.6144 21.1919 26.5273C21.2326 26.4403 21.2921 26.3625 21.3658 26.3008L25.521 22.9316L18.688 17.3994C18.5688 17.2986 18.483 17.1636 18.4429 17.0127C18.4028 16.8618 18.4108 16.7023 18.4644 16.5557C18.5179 16.409 18.6148 16.2819 18.7427 16.1924C18.8706 16.1029 19.0231 16.0549 19.1792 16.0547H22.6529ZM14.2447 25.293C14.4447 25.2982 14.6442 25.3185 14.8413 25.3535C15.4537 25.4558 16.0352 25.6963 16.5415 26.0557L23.4185 31.6445C23.4919 31.7058 23.551 31.7824 23.5913 31.8691C23.6317 31.956 23.6523 32.0507 23.6519 32.1465C23.6553 32.245 23.6368 32.3434 23.5972 32.4336C23.5576 32.5237 23.4981 32.6039 23.4234 32.668L21.1617 34.5137C20.995 34.6505 20.7855 34.725 20.5699 34.7256C20.3467 34.7223 20.1318 34.6398 19.9644 34.4922L10.2652 26.6357C10.1468 26.5348 10.0625 26.3995 10.023 26.249C9.98348 26.0986 9.99111 25.94 10.0445 25.7939C10.0979 25.6478 10.1945 25.5211 10.3218 25.4316C10.4491 25.3422 10.6008 25.2937 10.7564 25.293H14.2447ZM35.48 13.3594C37.7694 13.3596 39.6253 15.2155 39.6255 17.5049C39.6255 19.7944 37.7695 21.6511 35.48 21.6514C33.1903 21.6514 31.3335 19.7946 31.3335 17.5049C31.3337 15.2153 33.1904 13.3594 35.48 13.3594Z" fill="white"/>
<path fill-rule="evenodd" clip-rule="evenodd" d="M22.6529 16.0547L22.6593 15.8033H22.6529V16.0547ZM23.2505 16.1133L23.2926 15.8654L23.2926 15.8654L23.2505 16.1133ZM24.9497 16.8145L25.1082 16.6193L25.1016 16.6139L25.0947 16.609L24.9497 16.8145ZM33.3355 23.6211L33.4945 23.4264L33.4939 23.4259L33.3355 23.6211ZM33.5103 23.8457L33.7374 23.738L33.7374 23.738L33.5103 23.8457ZM33.5728 24.123H33.8242V24.123L33.5728 24.123ZM33.5103 24.4004L33.7374 24.5081L33.7374 24.5081L33.5103 24.4004ZM33.3355 24.625L33.4944 24.8198L33.4945 24.8197L33.3355 24.625ZM29.187 28.0107L29.0281 27.816L28.7893 28.0109L29.0283 28.2056L29.187 28.0107ZM41.7349 38.2334L41.9761 38.3043L42.0232 38.144L41.8937 38.0385L41.7349 38.2334ZM41.73 38.25L41.4888 38.1791L41.4429 38.3354L41.5668 38.4412L41.73 38.25ZM41.9722 38.6367L42.2154 38.573L42.2154 38.5729L41.9722 38.6367ZM41.9507 39.0928L42.1867 39.1795L42.1867 39.1794L41.9507 39.0928ZM41.6714 39.4551L41.8153 39.6612L41.8155 39.6611L41.6714 39.4551ZM41.2368 39.5928V39.8442L41.2375 39.8442L41.2368 39.5928ZM37.9624 39.5928V39.3413L37.9568 39.3414L37.9624 39.5928ZM37.1626 39.5342L37.1199 39.7819L37.1205 39.782L37.1626 39.5342ZM35.4634 38.8203L35.3044 39.015L35.3104 39.0199L35.3166 39.0244L35.4634 38.8203ZM21.3658 27.3096L21.2044 27.5024L21.2068 27.5043L21.3658 27.3096ZM21.1919 27.083L20.9641 27.1893L20.9642 27.1894L21.1919 27.083ZM21.1304 26.8057H20.879V26.8058L21.1304 26.8057ZM21.1919 26.5273L20.9642 26.421L20.9641 26.421L21.1919 26.5273ZM21.3658 26.3008L21.2074 26.1055L21.2044 26.108L21.3658 26.3008ZM25.521 22.9316L25.6793 23.1269L25.9204 22.9315L25.6792 22.7363L25.521 22.9316ZM18.688 17.3994L18.5257 17.5915L18.5298 17.5948L18.688 17.3994ZM18.4429 17.0127L18.1999 17.0772L18.1999 17.0772L18.4429 17.0127ZM18.4644 16.5557L18.2283 16.4694L18.2283 16.4694L18.4644 16.5557ZM18.7427 16.1924L18.5985 15.9865L18.5985 15.9865L18.7427 16.1924ZM19.1792 16.0547V15.8033L19.1789 15.8033L19.1792 16.0547ZM14.2447 25.293L14.2513 25.0416H14.2447V25.293ZM14.8413 25.3535L14.7973 25.601L14.7999 25.6015L14.8413 25.3535ZM16.5415 26.0557L16.7001 25.8606L16.6937 25.8554L16.687 25.8507L16.5415 26.0557ZM23.4185 31.6445L23.5796 31.4515L23.577 31.4494L23.4185 31.6445ZM23.5913 31.8691L23.8193 31.7631L23.8192 31.7631L23.5913 31.8691ZM23.6519 32.1465L23.4003 32.1453L23.4006 32.1551L23.6519 32.1465ZM23.5972 32.4336L23.8273 32.5347L23.8274 32.5347L23.5972 32.4336ZM23.4234 32.668L23.5824 32.8628L23.5871 32.8588L23.4234 32.668ZM21.1617 34.5137L21.0027 34.3189L21.0021 34.3194L21.1617 34.5137ZM20.5699 34.7256L20.5662 34.977L20.5705 34.977L20.5699 34.7256ZM19.9644 34.4922L20.1308 34.3035L20.1226 34.2968L19.9644 34.4922ZM10.2652 26.6357L10.102 26.827L10.1069 26.8311L10.2652 26.6357ZM10.023 26.249L9.77984 26.3129L9.77984 26.3129L10.023 26.249ZM10.0445 25.7939L9.80838 25.7076L9.80834 25.7077L10.0445 25.7939ZM10.3218 25.4316L10.1773 25.226L10.1773 25.226L10.3218 25.4316ZM10.7564 25.293V25.0416L10.7552 25.0416L10.7564 25.293ZM35.48 13.3594L35.48 13.108H35.48V13.3594ZM39.6255 17.5049H39.8769V17.5049L39.6255 17.5049ZM35.48 21.6514V21.9028H35.48L35.48 21.6514ZM31.3335 17.5049L31.0821 17.5049V17.5049H31.3335ZM22.6529 16.0547L22.6464 16.306C22.8342 16.3108 23.0223 16.3295 23.2084 16.3611L23.2505 16.1133L23.2926 15.8654C23.0837 15.8299 22.8717 15.8088 22.6593 15.8034L22.6529 16.0547ZM23.2505 16.1133L23.2084 16.3611C23.7831 16.4588 24.3286 16.6838 24.8048 17.0199L24.9497 16.8145L25.0947 16.609C24.557 16.2297 23.9413 15.9757 23.2926 15.8654L23.2505 16.1133ZM24.9497 16.8145L24.7913 17.0096L33.1771 23.8163L33.3355 23.6211L33.4939 23.4259L25.1082 16.6193L24.9497 16.8145ZM33.3355 23.6211L33.1764 23.8158C33.2208 23.852 33.2573 23.899 33.2832 23.9534L33.5103 23.8457L33.7374 23.738C33.681 23.6189 33.5989 23.5117 33.4945 23.4264L33.3355 23.6211ZM33.5103 23.8457L33.2831 23.9534C33.3084 24.0066 33.3214 24.0644 33.3214 24.1231L33.5728 24.123L33.8242 24.123C33.8242 23.9897 33.7945 23.8583 33.7374 23.738L33.5103 23.8457ZM33.5728 24.123H33.3214C33.3214 24.1816 33.3084 24.2395 33.2831 24.2927L33.5103 24.4004L33.7374 24.5081C33.7944 24.3878 33.8242 24.2564 33.8242 24.123H33.5728ZM33.5103 24.4004L33.2831 24.2927C33.2573 24.3471 33.2208 24.3941 33.1764 24.4303L33.3355 24.625L33.4945 24.8197C33.5989 24.7344 33.681 24.6272 33.7374 24.5081L33.5103 24.4004ZM33.3355 24.625L33.1765 24.4302L29.0281 27.816L29.187 28.0107L29.346 28.2055L33.4944 24.8198L33.3355 24.625ZM29.187 28.0107L29.0283 28.2056L41.5761 38.4283L41.7349 38.2334L41.8937 38.0385L29.3458 27.8158L29.187 28.0107ZM41.7349 38.2334L41.4937 38.1625L41.4888 38.1791L41.73 38.25L41.9712 38.3209L41.9761 38.3043L41.7349 38.2334ZM41.73 38.25L41.5668 38.4412C41.6458 38.5086 41.7024 38.5991 41.729 38.7005L41.9722 38.6367L42.2154 38.5729C42.163 38.3732 42.051 38.1934 41.8932 38.0588L41.73 38.25ZM41.9722 38.6367L41.729 38.7004C41.7555 38.8017 41.7505 38.9086 41.7147 39.0062L41.9507 39.0928L42.1867 39.1794C42.2582 38.9847 42.2677 38.7729 42.2154 38.573L41.9722 38.6367ZM41.9507 39.0928L41.7148 39.006C41.6788 39.1039 41.6131 39.1891 41.5274 39.2491L41.6714 39.4551L41.8155 39.6611C41.9851 39.5425 42.1151 39.3741 42.1867 39.1795L41.9507 39.0928ZM41.6714 39.4551L41.5275 39.249C41.4417 39.3089 41.34 39.3411 41.2362 39.3414L41.2368 39.5928L41.2375 39.8442C41.4446 39.8437 41.6462 39.7793 41.8153 39.6612L41.6714 39.4551ZM41.2368 39.5928V39.3414H37.9624V39.5928V39.8442H41.2368V39.5928ZM37.9624 39.5928L37.9568 39.3414C37.7052 39.3471 37.453 39.3286 37.2048 39.2863L37.1626 39.5342L37.1205 39.782C37.4002 39.8296 37.6843 39.8504 37.9681 39.8441L37.9624 39.5928ZM37.1626 39.5342L37.2054 39.2865C36.6299 39.1871 36.0846 38.9576 35.6102 38.6162L35.4634 38.8203L35.3166 39.0244C35.8525 39.4099 36.4689 39.6695 37.1199 39.7819L37.1626 39.5342ZM35.4634 38.8203L35.6224 38.6256L21.5247 27.1148L21.3658 27.3096L21.2068 27.5043L35.3044 39.015L35.4634 38.8203ZM21.3658 27.3096L21.5271 27.1168C21.482 27.0791 21.445 27.0309 21.4197 26.9766L21.1919 27.083L20.9642 27.1894C21.0202 27.3093 21.1021 27.4167 21.2044 27.5024L21.3658 27.3096ZM21.1919 27.083L21.4197 26.9767C21.3948 26.9232 21.3818 26.8649 21.3818 26.8055L21.1304 26.8057L20.879 26.8058C20.8791 26.9382 20.908 27.069 20.9641 27.1893L21.1919 27.083ZM21.1304 26.8057H21.3818C21.3818 26.7459 21.3948 26.687 21.4197 26.6337L21.1919 26.5273L20.9641 26.421C20.9078 26.5417 20.879 26.6733 20.879 26.8057H21.1304ZM21.1919 26.5273L21.4197 26.6337C21.445 26.5795 21.482 26.5313 21.5271 26.4936L21.3658 26.3008L21.2044 26.108C21.1021 26.1936 21.0202 26.3011 20.9642 26.421L21.1919 26.5273ZM21.3658 26.3008L21.5241 26.496L25.6793 23.1269L25.521 22.9316L25.3627 22.7364L21.2074 26.1055L21.3658 26.3008ZM25.521 22.9316L25.6792 22.7363L18.8462 17.204L18.688 17.3994L18.5298 17.5948L25.3628 23.127L25.521 22.9316ZM18.688 17.3994L18.8503 17.2074C18.7701 17.1397 18.7126 17.049 18.6859 16.9482L18.4429 17.0127L18.1999 17.0772C18.2533 17.2782 18.3674 17.4576 18.5258 17.5914L18.688 17.3994ZM18.4429 17.0127L18.6859 16.9482C18.6592 16.8479 18.6643 16.741 18.7005 16.6419L18.4644 16.5557L18.2283 16.4694C18.1573 16.6636 18.1464 16.8757 18.1999 17.0772L18.4429 17.0127ZM18.4644 16.5557L18.7005 16.6419C18.7366 16.543 18.8017 16.4579 18.8869 16.3983L18.7427 16.1924L18.5985 15.9865C18.4279 16.1059 18.2993 16.275 18.2283 16.4694L18.4644 16.5557ZM18.7427 16.1924L18.8869 16.3983C18.9724 16.3385 19.0747 16.3062 19.1796 16.3061L19.1792 16.0547L19.1789 15.8033C18.9716 15.8036 18.7688 15.8672 18.5985 15.9865L18.7427 16.1924ZM19.1792 16.0547V16.3061H22.6529V16.0547V15.8033H19.1792V16.0547ZM14.2447 25.293L14.2381 25.5443C14.4255 25.5492 14.6125 25.5682 14.7973 25.601L14.8413 25.3535L14.8853 25.106C14.6758 25.0688 14.4638 25.0473 14.2513 25.0417L14.2447 25.293ZM14.8413 25.3535L14.7999 25.6015C15.3747 25.6975 15.9206 25.9232 16.396 26.2607L16.5415 26.0557L16.687 25.8507C16.1498 25.4694 15.5328 25.2142 14.8828 25.1056L14.8413 25.3535ZM16.5415 26.0557L16.383 26.2507L23.2599 31.8396L23.4185 31.6445L23.577 31.4494L16.7001 25.8606L16.5415 26.0557ZM23.4185 31.6445L23.2574 31.8375C23.3026 31.8753 23.3388 31.9222 23.3634 31.9752L23.5913 31.8691L23.8192 31.7631C23.7632 31.6426 23.6812 31.5364 23.5796 31.4515L23.4185 31.6445ZM23.5913 31.8691L23.3634 31.9752C23.3881 32.0282 23.4008 32.0864 23.4005 32.1453L23.6519 32.1465L23.9033 32.1477C23.9039 32.0151 23.8754 31.8837 23.8193 31.7631L23.5913 31.8691ZM23.6519 32.1465L23.4006 32.1551C23.4028 32.2167 23.3912 32.2775 23.367 32.3325L23.5972 32.4336L23.8274 32.5347C23.8825 32.4092 23.9078 32.2732 23.9031 32.1379L23.6519 32.1465ZM23.5972 32.4336L23.3671 32.3325C23.3427 32.388 23.3059 32.4375 23.2597 32.4772L23.4234 32.668L23.5871 32.8588C23.6903 32.7702 23.7725 32.6595 23.8273 32.5347L23.5972 32.4336ZM23.4234 32.668L23.2644 32.4732L21.0027 34.3189L21.1617 34.5137L21.3206 34.7084L23.5823 32.8627L23.4234 32.668ZM21.1617 34.5137L21.0021 34.3194C20.8807 34.4191 20.7276 34.4738 20.5692 34.4742L20.5699 34.7256L20.5705 34.977C20.8435 34.9763 21.1092 34.882 21.3212 34.7079L21.1617 34.5137ZM20.5699 34.7256L20.5735 34.4742C20.4099 34.4719 20.2528 34.4114 20.1307 34.3037L19.9644 34.4922L19.7981 34.6807C20.0107 34.8683 20.2835 34.9728 20.5662 34.9769L20.5699 34.7256ZM19.9644 34.4922L20.1226 34.2968L10.4234 26.4404L10.2652 26.6357L10.1069 26.8311L19.8062 34.6875L19.9644 34.4922ZM10.2652 26.6357L10.4283 26.4445C10.3495 26.3772 10.2928 26.2866 10.2661 26.1852L10.023 26.249L9.77984 26.3129C9.83225 26.5124 9.94415 26.6923 10.102 26.827L10.2652 26.6357ZM10.023 26.249L10.2661 26.1852C10.2397 26.0846 10.2447 25.9783 10.2806 25.8802L10.0445 25.7939L9.80834 25.7077C9.73748 25.9016 9.72726 26.1127 9.77984 26.3129L10.023 26.249ZM10.0445 25.7939L10.2805 25.8803C10.3166 25.7818 10.3815 25.6969 10.4663 25.6373L10.3218 25.4316L10.1773 25.226C10.0075 25.3452 9.87926 25.5139 9.80838 25.7076L10.0445 25.7939ZM10.3218 25.4316L10.4663 25.6373C10.5517 25.5773 10.6534 25.5449 10.7576 25.5444L10.7564 25.293L10.7552 25.0416C10.5481 25.0426 10.3465 25.1071 10.1773 25.226L10.3218 25.4316ZM10.7564 25.293V25.5444H14.2447V25.293V25.0416H10.7564V25.293ZM35.48 13.3594L35.48 13.6108C37.6305 13.611 39.374 15.3543 39.3741 17.5049L39.6255 17.5049L39.8769 17.5049C39.8767 15.0766 37.9082 13.1082 35.48 13.108L35.48 13.3594ZM39.6255 17.5049H39.3741C39.3741 19.6557 37.6306 21.3998 35.48 21.4L35.48 21.6514L35.48 21.9028C37.9084 21.9025 39.8769 19.9332 39.8769 17.5049H39.6255ZM35.48 21.6514V21.4C33.3292 21.4 31.5849 19.6557 31.5849 17.5049H31.3335H31.0821C31.0821 19.9334 33.0515 21.9028 35.48 21.9028V21.6514ZM31.3335 17.5049L31.5849 17.5049C31.5851 15.3542 33.3292 13.6108 35.48 13.6108V13.3594V13.108C33.0517 13.108 31.0823 15.0765 31.0821 17.5049L31.3335 17.5049Z" fill="#61CF5D" mask="url(#path-2-inside-1_4337_29761)"/>
</svg>
