<svg width="24" height="24" viewBox="0 0 24 24" fill="none" xmlns="http://www.w3.org/2000/svg">
<path d="M12.8504 2.99844C12.8504 2.529 12.4698 2.14844 12.0004 2.14844C11.5309 2.14844 11.1504 2.529 11.1504 2.99844V11.1484H3.00039C2.53095 11.1484 2.15039 11.529 2.15039 11.9984C2.15039 12.4679 2.53095 12.8484 3.00039 12.8484H11.1504V20.9984C11.1504 21.4679 11.5309 21.8484 12.0004 21.8484C12.4698 21.8484 12.8504 21.4679 12.8504 20.9984V12.8484H21.0004C21.4698 12.8484 21.8504 12.4679 21.8504 11.9984C21.8504 11.529 21.4698 11.1484 21.0004 11.1484H12.8504V2.99844Z" fill="var(------icon_primary, #2F3033)"/>
</svg>
