<svg width="16" height="16" viewBox="0 0 16 16" fill="none" xmlns="http://www.w3.org/2000/svg">
<g clip-path="url(#clip0_4337_29356)">
<path fill-rule="evenodd" clip-rule="evenodd" d="M7.77784 15.8534C5.13303 15.8534 2.16981 13.5331 2.15245 10.5599C2.13509 7.58658 4.21145 5.8578 5.40732 4.58963C6.60733 3.31706 7.34665 1.68795 7.06312 0.851562C11.5868 3.53645 12.1119 7.72671 10.2623 10.2395C8.41277 12.7523 6.53206 12.856 7.77784 15.8534Z" fill="url(#paint0_linear_4337_29356)" fill-opacity="0.9"/>
<foreignObject x="4.41914" y="4.70234" width="8.74375" height="11.3375"><div xmlns="http://www.w3.org/1999/xhtml" style="backdrop-filter:blur(0.1px);clip-path:url(#bgblur_1_4337_29356_clip_path);height:100%;width:100%"></div></foreignObject><path data-figma-bg-blur-radius="0.2" fill-rule="evenodd" clip-rule="evenodd" d="M7.80254 15.8411C3.75683 15.6754 4.18518 11.4963 5.7077 9.97274C7.23021 8.44921 9.20805 8.14018 10.0459 7.35393C10.8838 6.56769 11.4297 6.1431 11.3569 4.90054C13.969 7.59205 13.0394 10.5944 11.0938 12.5405C9.14827 14.4865 7.48659 15.1188 7.80254 15.8411Z" fill="url(#paint1_linear_4337_29356)" fill-opacity="0.9"/>
<foreignObject x="5.68281" y="8.24922" width="8.18516" height="7.80234"><div xmlns="http://www.w3.org/1999/xhtml" style="backdrop-filter:blur(0.1px);clip-path:url(#bgblur_2_4337_29356_clip_path);height:100%;width:100%"></div></foreignObject><path data-figma-bg-blur-radius="0.2" fill-rule="evenodd" clip-rule="evenodd" d="M7.69411 15.8526C4.99498 15.7525 5.71668 13.5221 7.24009 13.0143C8.76351 12.5065 9.23483 12.5906 10.5527 11.9547C11.8706 11.3187 13.0309 10.468 13.3245 8.45087C14.8222 12.574 11.1438 15.8526 7.69411 15.8526Z" fill="url(#paint2_linear_4337_29356)" fill-opacity="0.8"/>
</g>
<defs>
<clipPath id="bgblur_1_4337_29356_clip_path" transform="translate(-4.41914 -4.70234)"><path fill-rule="evenodd" clip-rule="evenodd" d="M7.80254 15.8411C3.75683 15.6754 4.18518 11.4963 5.7077 9.97274C7.23021 8.44921 9.20805 8.14018 10.0459 7.35393C10.8838 6.56769 11.4297 6.1431 11.3569 4.90054C13.969 7.59205 13.0394 10.5944 11.0938 12.5405C9.14827 14.4865 7.48659 15.1188 7.80254 15.8411Z"/>
</clipPath><clipPath id="bgblur_2_4337_29356_clip_path" transform="translate(-5.68281 -8.24922)"><path fill-rule="evenodd" clip-rule="evenodd" d="M7.69411 15.8526C4.99498 15.7525 5.71668 13.5221 7.24009 13.0143C8.76351 12.5065 9.23483 12.5906 10.5527 11.9547C11.8706 11.3187 13.0309 10.468 13.3245 8.45087C14.8222 12.574 11.1438 15.8526 7.69411 15.8526Z"/>
</clipPath><linearGradient id="paint0_linear_4337_29356" x1="10.2772" y1="3.37135" x2="6.07693" y2="17.1514" gradientUnits="userSpaceOnUse">
<stop stop-color="#FFCAF4"/>
<stop offset="1" stop-color="#FF63B6"/>
</linearGradient>
<linearGradient id="paint1_linear_4337_29356" x1="14.8488" y1="4.89506" x2="7.73958" y2="14.5433" gradientUnits="userSpaceOnUse">
<stop stop-color="#FEB4FF"/>
<stop offset="1" stop-color="#FF2125"/>
</linearGradient>
<linearGradient id="paint2_linear_4337_29356" x1="12.8167" y1="14.5445" x2="9.7699" y2="12.0054" gradientUnits="userSpaceOnUse">
<stop stop-color="#D20062"/>
<stop offset="1" stop-color="#DC2023"/>
</linearGradient>
<clipPath id="clip0_4337_29356">
<rect width="16" height="16" fill="white"/>
</clipPath>
</defs>
</svg>
